<?xml version="1.0" encoding="UTF-8"?>
<svg id="Layer_1" data-name="Layer 1" xmlns="http://www.w3.org/2000/svg" viewBox="0 0 606 907">
  <path d="M88,907c-26,0-47.17-7.67-63.5-23S0,849.33,0,826c0-16,4.67-29.17,14-39.5s21.67-15.5,37-15.5c13.33,0,24.33,4.17,33,12.5s13,19.5,13,33.5c0,11.33-2.67,20.67-8,28-5.33,6.67-8,11.33-8,14,0,10,5.67,15,17,15,14,0,26.5-7.17,37.5-21.5s20.5-32.83,28.5-55.5c9.33-25.33,18.83-59,28.5-101,9.67-42,20.17-92.33,31.5-151l51-255h-118.05l8-41h119.05c21.33-83.33,51-145.67,89-187C411,20.67,453.67,0,501,0c33.33,0,59.17,7.17,77.5,21.5,18.33,14.33,27.5,33.17,27.5,56.5,0,36-17.33,54-52,54-13.33,0-24.83-4.67-34.5-14s-14.5-20.33-14.5-33c0-9.33,2.67-17.67,8-25s8-13.33,8-18c0-7.33-5.33-11-16-11-20,0-38,17-54,51-16.67,35.33-33.33,91-50,167h128.52l-6,41h-128.52l-52,242c-18,84.67-38.17,154.83-60.5,210.5-22.33,55.67-49,97-80,124s-69.17,40.5-114.5,40.5Z"/>
  <rect x="117.4" y="211.98" width="53" height="117" rx="12.53" ry="12.53"/>
  <rect x="514.4" y="211.98" width="53" height="117" rx="11.03" ry="11.03"/>
</svg>