<?xml version="1.0" encoding="UTF-8"?><svg id="Layer_1" xmlns="http://www.w3.org/2000/svg" viewBox="0 0 3378.38 1017.23"><defs><style>.cls-1{fill:#fff;}</style></defs><path class="cls-1" d="M88,907c-26,0-47.17-7.67-63.5-23S0,849.33,0,826c0-16,4.67-29.17,14-39.5s21.67-15.5,37-15.5c13.33,0,24.33,4.17,33,12.5s13,19.5,13,33.5c0,11.33-2.67,20.67-8,28-5.33,6.67-8,11.33-8,14,0,10,5.67,15,17,15,14,0,26.5-7.17,37.5-21.5s20.5-32.83,28.5-55.5c9.33-25.33,18.83-59,28.5-101,9.67-42,20.17-92.33,31.5-151l51-255h-118.05l8-41h119.05c21.33-83.33,51-145.67,89-187C411,20.67,453.67,0,501,0c33.33,0,59.17,7.17,77.5,21.5,18.33,14.33,27.5,33.17,27.5,56.5,0,36-17.33,54-52,54-13.33,0-24.83-4.67-34.5-14s-14.5-20.33-14.5-33c0-9.33,2.67-17.67,8-25s8-13.33,8-18c0-7.33-5.33-11-16-11-20,0-38,17-54,51-16.67,35.33-33.33,91-50,167h128.52l-6,41h-128.52l-52,242c-18,84.67-38.17,154.83-60.5,210.5-22.33,55.67-49,97-80,124s-69.17,40.5-114.5,40.5Z"/><rect class="cls-1" x="117.4" y="211.98" width="53" height="117" rx="12.53" ry="12.53"/><rect class="cls-1" x="514.4" y="211.98" width="53" height="117" rx="11.03" ry="11.03"/><path class="cls-1" d="M361.32,875.25l58.2-193.67c6.69-22.42,10.03-37.99,10.03-46.7,0-9.54-3.01-15.57-9.03-18.06-6.02-2.49-17.29-4.14-33.78-4.98l2.01-11.83c16.94-2.49,31.66-4.77,44.15-6.85,12.48-2.07,22.75-3.94,30.77-5.6,16.06-3.74,25.42-5.6,28.1-5.6,5.79,0,7.8,2.71,6.02,8.1l-34.79,118.94c52.18-84.69,91.42-127.04,117.74-127.04,8.92,0,16.05,2.8,21.41,8.41,5.35,5.61,8.03,13.18,8.03,22.73,0,11.21-3.57,20.55-10.7,28.02-7.14,7.47-15.84,11.21-26.09,11.21-7.59,0-14.28-2.28-20.07-6.85-5.8-4.56-9.15-10.79-10.04-18.68-56.64,53.97-99.46,136.8-128.44,248.47h-53.52Z"/><path class="cls-1" d="M646.3,882.72c-17.39,0-31.11-5.71-41.14-17.12s-15.05-28.12-15.05-50.13c0-33.63,8.36-67.88,25.09-102.75,16.72-34.87,40.47-65.39,71.25-91.54,30.32-26.15,61.32-39.23,92.99-39.23,28.1,0,44.37,11.21,48.84,33.63l8.7-26.78h50.84l-60.88,203.01c-6.25,19.93-9.37,34.05-9.37,42.35,0,5.82,3.78,8.72,11.37,8.72,9.37,0,25.64-13.9,48.84-41.72l9.37,7.47c-36.57,49.41-68.47,74.1-95.66,74.1-18.29,0-27.43-9.54-27.43-28.65,0-12.45,7.58-41.72,22.75-87.8-25.42,39.03-49.17,68.19-71.25,87.49-22.08,19.3-45.16,28.96-69.24,28.96ZM678.41,844.74c10.25,0,21.41-4.56,33.45-13.7,12.04-9.13,24.08-21.27,36.12-36.43,12.04-15.15,23.18-31.86,33.45-50.13,10.25-18.26,18.4-36.84,24.42-55.73,6.02-18.89,9.03-36.22,9.03-52,0-25.74-11.37-38.61-34.12-38.61-20.97,0-41.26,10.28-60.88,30.83-19.63,20.55-36.12,48.48-49.5,83.76-6.69,17.44-11.82,34.05-15.39,49.82-3.57,15.78-5.35,30.73-5.35,44.84,0,24.91,9.58,37.36,28.77,37.36Z"/><path class="cls-1" d="M1158.73,883.35c-10.26,0-18.4-2.91-24.42-8.72-6.02-5.81-9.03-14.11-9.03-24.91,0-12.04,8.92-46.91,26.76-104.62,17.83-58.54,26.76-93.61,26.76-105.24,0-12.86-5.8-19.3-17.39-19.3-8.48,0-18.4,3.53-29.77,10.59-11.37,7.06-23.31,16.61-35.79,28.65-12.49,12.05-24.53,25.33-36.12,39.85-11.6,14.54-21.64,29.27-30.1,44.21-16.95,29.48-33.68,73.28-50.17,131.4h-54.19l64.89-204.88c5.79-17.44,8.7-30.3,8.7-38.61,0-7.88-2.91-13.28-8.7-16.19-5.8-2.9-15.84-4.36-30.1-4.36h-5.35l2.01-11.21c18.28-2.07,34.12-4.05,47.5-5.92,13.38-1.87,24.3-3.83,32.78-5.92,16.49-4.15,26.53-6.23,30.1-6.23.89,0,1.78.73,2.68,2.18.89,1.46.89,3.42,0,5.92l-40.14,120.81c33.89-43.17,65.56-75.24,95-96.21,29.44-20.96,54.41-31.45,74.93-31.45,25.86,0,38.8,11.42,38.8,34.25,0,7.89-.78,16.09-2.34,24.6-1.57,8.51-3.91,17.54-7.02,27.09l-38.8,124.54c-2.68,9.14-4.8,16.61-6.36,22.42-1.57,5.82-2.34,10.38-2.34,13.7,0,9.55,4.68,14.32,14.05,14.32,12.93,0,30.32-17.64,52.18-52.93l10.7,7.47c-32.11,56.46-65.34,84.69-99.68,84.69Z"/><path class="cls-1" d="M1516.63,882.1c-12.49,0-22.53-5.2-30.1-15.57-7.59-10.37-16.5-26.98-26.76-49.82l-40.14-90.29-42.15,29.27-36.79,119.56h-54.19l115.73-384.22c2.23-7.05,3.34-13.28,3.34-18.68,0-8.3-2.57-13.59-7.69-15.88-5.13-2.28-14.16-3.42-27.09-3.42h-9.37l4.01-11.83c16.49-2.07,30.88-4.05,43.15-5.92,12.26-1.87,22.41-3.83,30.44-5.92,7.58-2.07,13.82-3.52,18.73-4.36,4.9-.83,8.25-1.25,10.03-1.25,4.45,0,6.69,2.29,6.69,6.85-.9,4.98-2.01,9.34-3.34,13.08l-87.64,285.83,110.38-76.6c23.18-16.19,34.79-28.64,34.79-37.36s-10.7-12.66-32.11-13.08l5.35-10.59h133.8l-3.34,11.21h-2.01c-23.64,0-52.18,11.83-85.63,35.5l-81.62,57.91,50.17,111.47c4.01,9.14,8.8,17.12,14.38,23.97,5.57,6.85,11.93,10.27,19.07,10.27,14.27,0,31.88-13.49,52.85-40.48l10.03,9.96c-16.5,23.66-33.01,41.31-49.5,52.93-16.51,11.62-31,17.44-43.48,17.44Z"/><path class="cls-1" d="M1726.02,881.48c-28.55,0-51.07-8.5-67.57-25.53-16.5-17.02-24.75-41.1-24.75-72.24,0-19.93,4.35-40.48,13.04-61.65s20.96-41.41,36.79-60.72c15.83-19.3,34-35.59,54.52-48.88,31.21-20.34,62.65-30.51,94.33-30.51,20.07,0,35.46,4.05,46.16,12.14,10.7,8.09,16.06,19.62,16.06,34.56,0,26.15-16.5,49.82-49.5,70.99-33.01,21.17-81.85,35.71-146.51,43.59-1.79,8.31-3.01,15.88-3.68,22.73-.67,6.85-1,12.98-1,18.37,0,44.84,20.74,67.25,62.22,67.25,31.66,0,65.56-17.22,101.68-51.69l10.04,9.34c-21.41,24.91-43.48,43.18-66.23,54.8-22.75,11.62-47.95,17.44-75.59,17.44ZM1701.27,728.91c45.04-5.81,79.61-18.47,103.69-37.99,24.08-19.51,36.12-41.93,36.12-67.25,0-16.6-8.03-24.91-24.08-24.91-13.83,0-28.21,5.6-43.15,16.81-14.95,11.21-28.77,26.68-41.48,46.39-12.71,19.72-23.08,42.03-31.11,66.94Z"/><path class="cls-1" d="M2145.47,883.35c-10.26,0-18.4-2.91-24.42-8.72-6.02-5.81-9.03-14.11-9.03-24.91,0-12.04,8.92-46.91,26.76-104.62,17.83-58.54,26.76-93.61,26.76-105.24,0-12.86-5.8-19.3-17.39-19.3-8.48,0-18.4,3.53-29.77,10.59-11.37,7.06-23.31,16.61-35.79,28.65-12.49,12.05-24.53,25.33-36.12,39.85-11.6,14.54-21.64,29.27-30.1,44.21-16.95,29.48-33.68,73.28-50.17,131.4h-54.19l64.89-204.88c5.79-17.44,8.7-30.3,8.7-38.61,0-7.88-2.91-13.28-8.7-16.19-5.8-2.9-15.84-4.36-30.1-4.36h-5.35l2.01-11.21c18.28-2.07,34.12-4.05,47.5-5.92,13.38-1.87,24.3-3.83,32.78-5.92,16.49-4.15,26.53-6.23,30.1-6.23.89,0,1.78.73,2.68,2.18.89,1.46.89,3.42,0,5.92l-40.14,120.81c33.89-43.17,65.56-75.24,95-96.21,29.44-20.96,54.41-31.45,74.93-31.45,25.86,0,38.8,11.42,38.8,34.25,0,7.89-.78,16.09-2.34,24.6-1.57,8.51-3.91,17.54-7.02,27.09l-38.8,124.54c-2.68,9.14-4.8,16.61-6.36,22.42-1.57,5.82-2.34,10.38-2.34,13.7,0,9.55,4.68,14.32,14.05,14.32,12.93,0,30.32-17.64,52.18-52.93l10.7,7.47c-32.11,56.46-65.34,84.69-99.68,84.69Z"/><path class="cls-1" d="M2238.45,1017.23c-12.48,0-22.75-3.33-30.77-9.96-8.03-6.65-12.04-14.74-12.04-24.29,0-18.27,8.26-27.4,24.75-27.4,14.72,0,22.08,6.64,22.08,19.93,0,4.15-.67,7.47-2.01,9.96-1.78,2.9-2.68,5.39-2.68,7.47,0,4.56,2.46,6.85,7.36,6.85,12.94,0,23.41-8.1,31.44-24.29,4.01-8.31,8.03-18.79,12.04-31.45,4.01-12.67,7.8-27.93,11.37-45.77l57.53-285.21h-64.22l5.35-19.93h62.88l8.03-33.63c10.25-43.59,27.31-77.11,51.18-100.57,23.85-23.45,50.73-35.18,80.61-35.18,17.83,0,32.22,4.26,43.15,12.77,10.92,8.51,16.39,19.21,16.39,32.07,0,18.68-10.7,28.02-32.11,28.02-16.51,0-24.75-8.1-24.75-24.29,0-2.07.33-4.15,1-6.23.67-2.07,1.22-3.94,1.67-5.6,1.78-2.07,2.68-4.56,2.68-7.47,0-3.32-1.67-6.23-5.02-8.72-3.35-2.49-7.69-3.74-13.05-3.74-25.87,0-44.82,26.37-56.86,79.09l-16.72,73.48h78.27l-3.35,19.93h-78.94l-26.76,123.3c-11.15,51.48-22.31,95.49-33.45,132.02-11.15,36.53-22.53,65.17-34.12,85.94-22.75,41.93-49.72,62.9-80.95,62.9Z"/><path class="cls-1" d="M2589.66,882.72c-33.01,0-59.43-9.23-79.27-27.71-19.85-18.47-29.77-43.28-29.77-74.42,0-23.66,5.91-47.22,17.73-70.68,11.81-23.45,27.65-44.84,47.5-64.14,19.84-19.3,41.92-34.77,66.23-46.39,24.3-11.62,48.72-17.44,73.25-17.44,34.34,0,61.55,9.24,81.62,27.71,20.07,18.48,30.1,43.28,30.1,74.42,0,20.76-4.8,41.83-14.38,63.21-9.6,21.39-22.64,41.41-39.14,60.09-16.5,18.68-35.24,34.25-56.19,46.7-31.67,19.1-64.22,28.65-97.67,28.65ZM2597.02,864.66c18.28,0,35.9-6.33,52.85-18.99,16.94-12.66,32-29.16,45.16-49.51,13.15-20.34,23.63-42.03,31.44-65.08,7.8-23.04,11.71-44.93,11.71-65.7,0-44.84-18.96-67.25-56.86-67.25-21.86,0-43.48,9.65-64.89,28.96-21.41,19.3-39.47,45.36-54.19,78.15-14.72,32.8-22.08,63.73-22.08,92.79,0,21.59,5.02,38.09,15.05,49.51,10.04,11.42,23.97,17.12,41.81,17.12Z"/><path class="cls-1" d="M3055.27,883.35c-10.26,0-18.4-2.91-24.42-8.72-6.02-5.81-9.03-14.11-9.03-24.91,0-12.04,8.92-46.91,26.76-104.62,17.83-58.54,26.76-93.61,26.76-105.24,0-12.86-5.8-19.3-17.39-19.3-8.48,0-18.4,3.53-29.77,10.59-11.37,7.06-23.31,16.61-35.79,28.65-12.49,12.05-24.53,25.33-36.12,39.85-11.6,14.54-21.64,29.27-30.1,44.21-16.95,29.48-33.68,73.28-50.17,131.4h-54.19l64.89-204.88c5.79-17.44,8.7-30.3,8.7-38.61,0-7.88-2.91-13.28-8.7-16.19-5.8-2.9-15.84-4.36-30.1-4.36h-5.35l2.01-11.21c18.28-2.07,34.12-4.05,47.5-5.92,13.38-1.87,24.3-3.83,32.78-5.92,16.49-4.15,26.53-6.23,30.1-6.23.89,0,1.78.73,2.68,2.18.89,1.46.89,3.42,0,5.92l-40.14,120.81c33.89-43.17,65.56-75.24,95-96.21,29.44-20.96,54.41-31.45,74.93-31.45,25.86,0,38.8,11.42,38.8,34.25,0,7.89-.78,16.09-2.34,24.6-1.57,8.51-3.91,17.54-7.02,27.09l-38.8,124.54c-2.68,9.14-4.8,16.61-6.36,22.42-1.57,5.82-2.34,10.38-2.34,13.7,0,9.55,4.68,14.32,14.05,14.32,12.93,0,30.32-17.64,52.18-52.93l10.7,7.47c-32.11,56.46-65.34,84.69-99.68,84.69Z"/><path class="cls-1" d="M3229.2,882.72c-21.41,0-32.11-10.59-32.11-31.76,0-5.39.55-10.9,1.67-16.5,1.11-5.6,2.56-11.1,4.35-16.5l58.87-204.88h-46.16l2.68-13.08c41.48-7.05,79.16-36.53,113.06-88.43h15.39l-25.42,81.58h56.86l-5.35,19.93h-56.86l-54.19,189.93c-4.01,13.7-6.02,23.88-6.02,30.51,0,8.72,4.01,13.08,12.04,13.08,10.7,0,28.1-14.95,52.18-44.84l10.03,10.59c-35.24,46.92-68.9,70.37-101.02,70.37Z"/></svg>